# xmcd
#
# Track frame offsets: 
#        150
#        14012
#        26477
#        38105
#        50445
#        60620
#        74205
#        85745
#        95932
#        109325
#        122507
#        135375
#        148150
#        163005
#        178527
#        190715
#
# Disc length: 2758 seconds
#
# Revision: 17
# Processed by: cddbd v1.5.2PL0 Copyright (c) Steve Scherf et al.
# Submitted via: ExactAudioCopy v1.0b6
#
DISCID=e70ac410
DTITLE=Johnny Cash and June Carter Cash - Duets
DYEAR=2006
DGENRE=Country
TTITLE0=It Ain't Me, Babe
TTITLE1=Jackson
TTITLE2=Long-Legged Guitar Pickin' Man
TTITLE3=Oh, What A Good Thing We Had
TTITLE4=Darlin' Companion
TTITLE5=If I Were A Carpenter
TTITLE6='Cause I Love You
TTITLE7=The Loving Gift
TTITLE8=Help Me Make It Through The Night
TTITLE9=The Pine Tree
TTITLE10=No Need To Worry
TTITLE11=Old Time Feeling
TTITLE12=One Way Rider
TTITLE13=Brand New Dance
TTITLE14=Far Side Banks Of Jordan
TTITLE15=It Takes One To Know Me
EXTD=Label: Columbia\nBestellnummer: 82876 78344 2\nFirma: SONY BMG MU
EXTD=SIC ENTERTAINMENT\n(c)2006 Son YEAR: 2006
EXTT0=
EXTT1=
EXTT2=
EXTT3=
EXTT4=
EXTT5=
EXTT6=
EXTT7=
EXTT8=
EXTT9=
EXTT10=
EXTT11=
EXTT12=
EXTT13=
EXTT14=
EXTT15=
PLAYORDER=
